<svg xmlns="http://www.w3.org/2000/svg" viewBox="0 0 391.30151 37.200001" width="391.302" height="37.2"><style>.st0{fill:#333E48;} .st1{fill:#CEA052;}</style><path class="st0" d="M20.1 20c2.8-1.5 4.3-4 4.3-7.2 0-5-4.2-8.2-10.6-8.2H0v32.1h14.3c7.3 0 11.8-3.4 11.8-9 0-3.6-2-6.2-6-7.7zM4.3 18.5v-10h9.1c4.1 0 6.5 1.8 6.5 4.7 0 3.3-2.5 5.2-6.8 5.2H4.3zm17.4 9c0 3.3-2.7 5.2-7.3 5.2H4.3V22.5h9.5c5.1 0 7.9 1.7 7.9 5zM43.4 18.5V8.6h16.2V4.5H39v32.2h20.6v-4.1H43.4V22.5h16.2v-4M84.7 18.5c-6.9-1.5-8.2-3.1-8.2-5.7 0-2.8 2.6-4.7 6.3-4.7 3.2 0 6 1.1 8.8 3.3l.3.3 2.5-3.4-.3-.2c-3.4-2.8-6.8-4-11.2-4-6.2 0-10.7 3.8-10.7 9 0 5.9 4.3 8.1 10.8 9.5 6.6 1.4 7.8 3 7.8 5.6 0 3-2.6 5-6.6 5-4 0-7.1-1.3-10.5-4.3l-.3-.3-2.7 3.2.3.3c3.9 3.5 8.1 5.1 13.1 5.1 6.6 0 11.1-3.7 11.1-9.3 0-5-3.1-7.8-10.5-9.4zM114.8 36.7h4.4V8.6h10.5V4.5h-25.4v4.1h10.5M162.9 36.7L156 26.4h-5.6v10.3h-7.1V4.5H158c7.6 0 12.1 4 12.1 10.6v.1c0 5.2-2.8 8.5-6.9 10l7.9 11.5h-8.2zm.2-21.2c0-3-2.1-4.6-5.6-4.6h-7v9.2h7.2c3.4.1 5.4-1.8 5.4-4.6zm73.3 21.4h-6.2l-13-32.4h7.8l8.4 22.6 8.4-22.6h7.6l-13 32.4zm22.9-.2V4.5h7.1v32.2h-7.1zm20.9 0V4.5h20.6v6.3h-13.6v6.5h13.6v6.3h-13.6v6.8h13.6v6.3h-20.6zm68 .2H342l-7.3-21-7.3 21h-6.2l-11-32.4h7.6l6.7 21.8 7.2-21.9h6.1l7.2 21.9 6.7-21.8h7.4l-10.9 32.4zm31.4.3c-4.9 0-9.8-1.7-13.6-5.1l4.2-5c2.9 2.4 5.9 3.9 9.6 3.9 2.9 0 4.6-1.1 4.6-3v-.1c0-1.8-1.1-2.7-6.5-4.1-6.5-1.7-10.7-3.4-10.7-9.8v-.1c0-5.8 4.7-9.7 11.3-9.7 4.7 0 8.7 1.5 11.9 4.1l-3.7 5.3c-2.9-2-5.7-3.2-8.4-3.2s-4.1 1.2-4.1 2.8v.1c0 2.1 1.4 2.8 6.9 4.2 6.5 1.7 10.2 4 10.2 9.6v.1c.1 6.4-4.8 10-11.7 10zM184.2 17.5h20.6v6.2h-20.6zM184.2 30.5h20.6v6.2h-20.6z" fill="#333e48"/><path class="st1" fill="#cea052" d="M194.5 0l-4.3 5.3-7.9-4.3 1.9 9.7h20.6l2-9.7-8 4.3"/></svg>